<?xml version="1.0" encoding="utf-8"?><svg viewBox="0 0 198 70" xmlns="http://www.w3.org/2000/svg" xmlns:xlink="http://www.w3.org/1999/xlink"><style>:root>svg{display:none}:root>svg:target{display:block}</style><svg fill="none" viewBox="0 0 198 70" id="button1-home" xmlns="http://www.w3.org/2000/svg"><path d="M190.368 0H7a7 7 0 00-7 7v56a7 7 0 007 7h165.186a7 7 0 006.658-4.838l18.181-56C198.494 4.639 195.122 0 190.368 0z" fill="#FF6155"/></svg><svg fill="none" viewBox="0 0 197 70" id="button2-home" xmlns="http://www.w3.org/2000/svg"><path d="M190 0H25.829a7 7 0 00-6.658 4.837l-18.194 56C-.493 65.36 2.879 70 7.634 70H190a7 7 0 007-7V7a7 7 0 00-7-7z" fill="#161616"/></svg><svg viewBox="0 0 28 30" id="cart" xmlns="http://www.w3.org/2000/svg"><path d="M8.685 2.451C10.59.29 13.563-.533 16.28.349c2.717.881 4.675 3.304 5.002 6.19l.218.004c2.126.086 4.556 1.446 5.245 5.27l1.113 8.807c.427 3.06-.13 5.42-1.424 6.989s-3.418 2.333-6.473 2.333H8.167a7.194 7.194 0 01-6.406-2.51 7.5 7.5 0 01-1.492-6.825l.033-.153a1.132 1.132 0 011.25-.823 1.15 1.15 0 01.957 1.306 6.182 6.182 0 00.971 4.984 6.123 6.123 0 004.674 1.714H19.96c2.343 0 3.962-.501 4.803-1.543.842-1.041 1.178-2.782.842-5.155l-1.1-8.716c-.39-2.11-1.593-3.428-3.224-3.428H6.833c-1.553 0-2.757 1.319-3.236 3.52l-.311 1.939a1.14 1.14 0 01-1.301.867c-.59-.105-1-.656-.939-1.263l.324-1.977c.854-4.022 3.379-5.34 5.463-5.34h12.144a5.184 5.184 0 00-1.605-3.033 4.909 4.909 0 00-7.017.395v.132l-.127.12a1.125 1.125 0 01-.964.221 1.15 1.15 0 01-.835-.79 1.177 1.177 0 01.256-1.133zm9.645 10.034l.168.026c.169.04.33.107.479.198.132.107.25.23.35.37.056.063.096.14.116.223a.876.876 0 01.078.514c.004.174-.031.345-.104.502-.065.17-.172.32-.31.435-.24.248-.565.39-.907.396a1.566 1.566 0 01-.505-.106 1.314 1.314 0 01-.57-.725c-.068-.158-.099-.33-.09-.501a.89.89 0 010-.264v-.25l.13-.225a.579.579 0 01.155-.197l.194-.172c.072-.05.15-.09.233-.118a.898.898 0 01.246-.08c.166-.039.339-.039.505 0l-.168-.026zm-8.273.013l.168.027a.767.767 0 01.246.079c.08.026.154.066.22.118a.842.842 0 01.207.172.578.578 0 01.156.198c.05.07.094.145.13.224l.077.25c.007.088.007.176 0 .264 0 .728-.58 1.319-1.295 1.319a1.284 1.284 0 01-.88-.396 1.32 1.32 0 01-.285-.435 1.34 1.34 0 01-.09-.501.873.873 0 01.077-.514.743.743 0 01.117-.225.579.579 0 01.155-.197.844.844 0 01.194-.159.722.722 0 01.22-.118.767.767 0 01.246-.08c.166-.039.34-.039.505 0l-.168-.026z"/></svg><svg viewBox="0 0 28 28" id="search" xmlns="http://www.w3.org/2000/svg"><path d="M23.668 22.207l4.041 4.04a1.035 1.035 0 01-1.463 1.462l-4.041-4.041a13.453 13.453 0 111.463-1.463v.002zm-10.216 2.628a11.382 11.382 0 100-22.765 11.382 11.382 0 000 22.765z"/></svg><svg viewBox="0 0 27 27" id="user" xmlns="http://www.w3.org/2000/svg"><path fill-rule="evenodd" clip-rule="evenodd" d="M12.842.013l-.572.079c-1.298.176-2.85.907-3.906 1.84a8.044 8.044 0 00-2.56 4.622c-.103.63-.09 2.057.025 2.634.378 1.905 1.45 3.668 2.899 4.766l.36.274-.151.057a12.9 12.9 0 00-1.45.633 13.512 13.512 0 00-5.597 5.221C.782 22 .165 24.072.036 26.367L0 27h2.123v-.258c0-1.788.743-4.26 1.737-5.78 1.535-2.345 3.588-3.954 6.092-4.775 2.378-.78 4.718-.78 7.096 0 2.504.82 4.557 2.43 6.092 4.776.994 1.519 1.737 3.99 1.737 5.779V27H27l-.036-.633c-.13-2.295-.746-4.368-1.854-6.228a13.511 13.511 0 00-5.597-5.221c-.538-.27-.816-.392-1.45-.633l-.151-.057.36-.274c1.449-1.098 2.521-2.861 2.9-4.766.114-.577.127-2.005.024-2.634-.229-1.392-.926-2.862-1.857-3.916a7.965 7.965 0 00-4.465-2.53c-.407-.073-1.746-.136-2.032-.095zm1.549 2.16c3.099.504 5.216 3.427 4.717 6.512-.503 3.104-3.42 5.225-6.499 4.725-3.099-.503-5.216-3.426-4.717-6.51.503-3.104 3.42-5.226 6.499-4.726z"/></svg></svg>